<?xml version="1.0" encoding="utf-8"?>
<!-- Generator: Adobe Illustrator 25.2.0, SVG Export Plug-In . SVG Version: 6.00 Build 0)  -->
<svg version="1.1" id="Layer_1" xmlns="http://www.w3.org/2000/svg" xmlns:xlink="http://www.w3.org/1999/xlink" x="0px" y="0px"
	 viewBox="0 0 50 50" style="enable-background:new 0 0 50 50;" xml:space="preserve">
<style type="text/css">
	.st0{enable-background:new    ;}
	.st1{fill:#231F20;}
</style>
<g class="st0">
	<path class="st1" d="M21.3,26c0-1.1,1-2.4,3-3.7l3.6-1.6l2.7-2.3c0.5-0.5,0.8-1.3,0.8-2.4c0-0.9-0.1-1.6-0.2-2
		c0-0.4-0.4-1.1-1.2-1.9c-0.6-0.8-2.1-1.2-4.5-1.2c-1.4,0-2.6,0.4-3.6,1.2c-1,0.8-1.5,2.2-1.5,4.2c0,0.8,0.2,1.5,0.5,2.2H13
		l-0.5-1.9v-2.2c0-3.3,1.2-6.1,3.6-8.1C18.6,4.1,21.7,3,25.4,3c2.2,0,4.3,0.2,6,0.7c0.8,0.2,1.7,0.5,2.7,1.1s1.9,1.3,2.9,2.2
		c1.9,1.7,2.8,4.5,2.8,8.2V17c0,0.7-0.1,1.3-0.3,1.7c0,0.4-0.2,1-0.6,1.8l-1.3,2.2c-0.5,0.8-1.3,1.6-2.5,2.3l-2.8,1.4l-2.2,1
		c-0.6,0.1-1,0.4-1.2,0.8v0.9V30v1.9v1.8h-7.7v-4.5V26z M21.3,46.7v-8.2h7.7v8.2H21.3z"/>
</g>
</svg>
