<svg id="Layer_1" data-name="Layer 1" xmlns="http://www.w3.org/2000/svg" viewBox="0 0 50 50"><defs><style>.cls-1{fill:#4d8bc0;}</style></defs><path class="cls-1" d="M25.14.91h0a24.36,24.36,0,0,0,0,48.72h0a24.36,24.36,0,0,0,0-48.72Zm0,43.72h0a19.36,19.36,0,0,1,0-38.72h0a19.36,19.36,0,0,1,0,38.72Z"/><path class="cls-1" d="M39.35,18.24,22.7,38.84l0,0h0a1.46,1.46,0,0,1-2.28,0L18.83,37l-.6-.75L18,35.9,10.8,27A1,1,0,0,1,11,25.65l2.77-2.23a1,1,0,0,1,1.37.14l5.3,6.54a1.45,1.45,0,0,0,2.27,0L35.07,14.78a1,1,0,0,1,1.37-.14l2.77,2.23A1,1,0,0,1,39.35,18.24Z"/></svg>